<?xml version="1.0" encoding="UTF-8" ?>
<!DOCTYPE svg PUBLIC "-//W3C//DTD SVG 1.1//EN" "http://www.w3.org/Graphics/SVG/1.1/DTD/svg11.dtd">
<svg width="55pt" height="55pt" viewBox="0 0 55 55" version="1.1" xmlns="http://www.w3.org/2000/svg">
<g id="#ffffffff">
<path fill="#ffffff" opacity="1.00" d=" M 31.26 0.00 L 34.07 0.00 C 35.76 0.39 39.15 1.18 40.84 1.58 C 36.30 5.99 31.85 10.50 27.37 14.97 C 28.41 18.23 28.96 21.64 30.20 24.83 C 33.40 26.08 36.82 26.64 40.13 27.56 C 44.63 23.13 48.89 18.44 53.67 14.31 C 57.03 24.47 49.81 36.41 39.42 38.56 C 34.67 39.76 29.21 37.97 24.97 41.00 C 20.39 44.69 16.82 49.48 12.18 53.11 C 12.06 53.58 11.81 54.53 11.68 55.00 L 11.30 55.00 C 11.26 54.40 11.16 53.21 11.12 52.61 L 10.50 53.43 C 7.70 50.28 4.71 47.30 1.57 44.50 L 2.39 43.86 C 1.79 43.83 0.60 43.79 0.00 43.77 L 0.00 43.39 C 0.48 43.24 1.43 42.94 1.91 42.79 C 5.52 38.14 10.44 34.69 14.02 30.01 C 16.80 25.96 15.69 20.82 16.28 16.23 C 17.89 7.14 26.78 0.27 36.01 0.73 L 31.26 0.00 Z" />
</g>
</svg>
